<?xml version="1.0" encoding="utf-8"?>
<!-- Generator: Adobe Illustrator 18.1.1, SVG Export Plug-In . SVG Version: 6.00 Build 0)  -->
<!DOCTYPE svg PUBLIC "-//W3C//DTD SVG 1.1//EN" "http://www.w3.org/Graphics/SVG/1.1/DTD/svg11.dtd">
<svg version="1.1" id="Layer_1" xmlns="http://www.w3.org/2000/svg" xmlns:xlink="http://www.w3.org/1999/xlink" x="0px" y="0px"
	 viewBox="0 0 104 80" enable-background="new 0 0 104 80" xml:space="preserve">
<path fill="#FFFFFF" d="M1.2,79.1c0,0,13.9-28.2,10.5-31.7c0,0,3.2,3.7,0.9,10c0,0,4.4-5.7,3.5-11.1c0,0,6.7-8.3,12.5-11.6
	c0,0,0.9,2.6-3.7,13.7c0,0,4.6-5.3,5.3-14.6c0,0,11-7.7,28.2-11.8c0,0-3.2,9.6-8,13.4c0,0,6.4-0.8,11.9-14.4c0,0,13.2-2.9,17.7-5.6
	c0,0-3,6.6-6.2,9.6c0,0,7.4-6.8,9.1-10.9c0,0,15.4-4.8,21-14.1c0,0-2.6,23.3-22.6,28.3c0,0,6.7,0.3,10.1-2.3c0,0-4.6,10-21.2,24
	c0,0-11.5-2.3-16.2-3.2s-12.4-4.2-21.8-0.8c0,0,11.1-3,32.8,6.4c0,0-7.1,5.4-25,8c0,0-16.2-6.7-20.3-4.8c0,0,13.5,1.9,15.5,8.6
	c0,0-6.7-7.5-27,4.2c0,0,3.8-1.5,5.4-0.5C13.5,67.7,6.6,67.3,1.2,79.1z"/>
<path fill="#FFFFFF" d="M103.7,79.1c0,0-0.4-0.2-1-0.6c-0.7-0.4-1.6-1-2.9-1.5c-1.3-0.6-2.9-1-4.7-0.9c-1.8,0.1-3.9,0.5-6.1,1.3
	c-2.2,0.7-4.6,1.7-7.3,2c-2.7,0.4-5.8,0.2-8.5-1.7c-1.4-0.9-2.3-2.3-3.3-3.6c-1-1.3-2.1-2.6-3.6-2.9c-1.5-0.3-3,0.1-4.5,0.4
	c-1.5,0.4-3,0.8-4.5,1.1c-3,0.8-6,1.5-9,2.3c-1.5,0.4-3,0.7-4.4,1c-0.7,0.2-1.5,0.4-2.3,0.4c-0.8,0.1-1.8-0.2-2.5-0.6
	c-0.7-0.4-1.4-0.9-2-1.3c-0.2-0.2-0.6-0.4-0.9-0.5c-0.3-0.1-0.6-0.3-0.9-0.4c-1.3-0.4-2.6-0.6-3.8-0.5c-2.5,0.2-4.8,1.3-6.6,2.7
	c-0.9,0.7-1.7,1.5-2.7,2.1c-0.9,0.7-2.1,1-3.2,0.7c-1-0.2-1.8-0.6-2.6-0.8c-0.8-0.2-1.5-0.2-2.2-0.3c-1.3,0-2.4,0.2-3.1,0.4
	c-0.7,0.2-1,0.4-1,0.4l-0.1-0.1c0,0,0.3-0.2,1-0.5c0.7-0.3,1.7-0.7,3.1-0.8c0.7-0.1,1.5-0.1,2.3,0.1c0.8,0.1,1.8,0.5,2.6,0.6
	c0.9,0.1,1.7-0.2,2.5-0.8c0.8-0.6,1.6-1.4,2.6-2.2c1.9-1.5,4.3-2.8,7.2-3.1c1.4-0.1,2.9,0,4.4,0.5c0.4,0.1,0.8,0.3,1.1,0.5
	c0.3,0.2,0.6,0.3,1,0.6c0.7,0.5,1.2,1,1.8,1.3c0.6,0.4,1.1,0.5,1.8,0.5c0.7,0,1.4-0.2,2.1-0.3c1.5-0.3,3-0.6,4.5-0.9
	c3-0.6,6.1-1.2,9.1-1.8c1.5-0.3,3.1-0.6,4.6-0.9c1.5-0.3,3.1-0.7,4.7-0.3c1.6,0.4,2.9,1.7,3.9,3c1,1.3,2.1,2.5,3.3,3.3
	c2.5,1.6,5.4,1.5,8,1.1c2.6-0.4,4.9-1.3,7.2-2c2.3-0.7,4.4-1.1,6.4-1c2,0.1,3.7,0.6,5,1.3c1.3,0.7,2.2,1.4,2.8,1.9
	c0.6,0.5,0.9,0.7,0.9,0.7L103.7,79.1z"/>
</svg>
