<?xml version="1.0" encoding="utf-8"?>
<!-- Generator: Adobe Illustrator 18.1.1, SVG Export Plug-In . SVG Version: 6.00 Build 0)  -->
<!DOCTYPE svg PUBLIC "-//W3C//DTD SVG 1.1//EN" "http://www.w3.org/Graphics/SVG/1.1/DTD/svg11.dtd">
<svg version="1.1" id="Layer_1" xmlns="http://www.w3.org/2000/svg" xmlns:xlink="http://www.w3.org/1999/xlink" x="0px" y="0px"
	 viewBox="0 0 104 80" enable-background="new 0 0 104 80" xml:space="preserve">
<path fill="#FFFFFF" d="M93.2,12.6h-15l-10.7-10C65.7,0.9,63.3,0,60.8,0H41.5c-2.2,0-4.2,0.9-5.8,2.4L25.6,12.6H10.9
	C4.9,12.6,0,17.5,0,23.4v45.7C0,75.1,4.9,80,10.9,80h82.3c6,0,10.8-4.9,10.8-10.8V23.4C104,17.5,99.1,12.6,93.2,12.6z M52,69.1
	c-12.6,0-22.8-10.2-22.8-22.8c0-12.6,10.2-22.8,22.8-22.8c12.6,0,22.8,10.2,22.8,22.8C74.8,58.9,64.6,69.1,52,69.1z M94.1,24.4
	c-1.6,0-2.8-1.3-2.8-2.8c0-1.6,1.3-2.8,2.8-2.8c1.5,0,2.8,1.3,2.8,2.8C97,23.1,95.7,24.4,94.1,24.4z"/>
<path fill="#FFFFFF" d="M69.8,46.3c0,9.8-8,17.8-17.8,17.8s-17.8-8-17.8-17.8c0-9.8,8-17.8,17.8-17.8S69.8,36.5,69.8,46.3z"/>
</svg>
