<?xml version="1.0" encoding="utf-8"?>
<!-- Generator: Adobe Illustrator 18.1.1, SVG Export Plug-In . SVG Version: 6.00 Build 0)  -->
<!DOCTYPE svg PUBLIC "-//W3C//DTD SVG 1.1//EN" "http://www.w3.org/Graphics/SVG/1.1/DTD/svg11.dtd">
<svg version="1.1" id="Layer_1" xmlns="http://www.w3.org/2000/svg" xmlns:xlink="http://www.w3.org/1999/xlink" x="0px" y="0px"
	 viewBox="0 0 104 80" enable-background="new 0 0 104 80" xml:space="preserve">
<g>
	<path fill="#FFFFFF" d="M99.6,0H4.4C2.1,0,0.3,1.9,0.3,4.2v71.7c0,2.3,1.9,4.2,4.2,4.2h95.1c2.3,0,4.2-1.9,4.2-4.2V4.2
		C103.7,1.9,101.9,0,99.6,0z M17.9,67c0,0.2-0.2,0.4-0.4,0.4H8.6c-0.2,0-0.4-0.2-0.4-0.4v-8c0-0.2,0.2-0.4,0.4-0.4h8.9
		c0.2,0,0.4,0.2,0.4,0.4V67z M17.9,51.2c0,0.2-0.2,0.4-0.4,0.4H8.6c-0.2,0-0.4-0.2-0.4-0.4v-8c0-0.2,0.2-0.4,0.4-0.4h8.9
		c0.2,0,0.4,0.2,0.4,0.4V51.2z M17.9,36.4c0,0.2-0.2,0.4-0.4,0.4H8.6c-0.2,0-0.4-0.2-0.4-0.4v-8c0-0.2,0.2-0.4,0.4-0.4h8.9
		c0.2,0,0.4,0.2,0.4,0.4V36.4z M17.9,20.6c0,0.2-0.2,0.4-0.4,0.4H8.6c-0.2,0-0.4-0.2-0.4-0.4v-8c0-0.2,0.2-0.4,0.4-0.4h8.9
		c0.2,0,0.4,0.2,0.4,0.4V20.6z M78.1,65c0,1.3-1.1,2.5-2.5,2.5H28.4c-1.4,0-2.5-1.1-2.5-2.5V14.6c0-1.4,1.1-2.5,2.5-2.5h47.2
		c1.3,0,2.5,1.1,2.5,2.5V65z M95.4,67c0,0.2-0.2,0.4-0.4,0.4h-8.9c-0.2,0-0.4-0.2-0.4-0.4v-8c0-0.2,0.2-0.4,0.4-0.4H95
		c0.2,0,0.4,0.2,0.4,0.4V67z M95.4,51.2c0,0.2-0.2,0.4-0.4,0.4h-8.9c-0.2,0-0.4-0.2-0.4-0.4v-8c0-0.2,0.2-0.4,0.4-0.4H95
		c0.2,0,0.4,0.2,0.4,0.4V51.2z M95.4,36.4c0,0.2-0.2,0.4-0.4,0.4h-8.9c-0.2,0-0.4-0.2-0.4-0.4v-8c0-0.2,0.2-0.4,0.4-0.4H95
		c0.2,0,0.4,0.2,0.4,0.4V36.4z M95.4,20.6c0,0.2-0.2,0.4-0.4,0.4h-8.9c-0.2,0-0.4-0.2-0.4-0.4v-8c0-0.2,0.2-0.4,0.4-0.4H95
		c0.2,0,0.4,0.2,0.4,0.4V20.6z"/>
	<path fill="#FFFFFF" d="M66.8,40.5L41.2,53.3c-0.3,0.2-0.8-0.1-0.8-0.5V27.2c0-0.4,0.4-0.6,0.8-0.5l25.6,12.9
		C67.1,39.8,67.1,40.3,66.8,40.5z"/>
</g>
</svg>
