<?xml version="1.0" encoding="utf-8"?>
<!-- Generator: Adobe Illustrator 18.1.1, SVG Export Plug-In . SVG Version: 6.00 Build 0)  -->
<!DOCTYPE svg PUBLIC "-//W3C//DTD SVG 1.1//EN" "http://www.w3.org/Graphics/SVG/1.1/DTD/svg11.dtd">
<svg version="1.1" id="Layer_1" xmlns="http://www.w3.org/2000/svg" xmlns:xlink="http://www.w3.org/1999/xlink" x="0px" y="0px"
	 viewBox="0 0 104 80" enable-background="new 0 0 104 80" xml:space="preserve">
<path fill="#FFFFFF" d="M33.3,79.2h31.5c-1-0.7-1.7-1.9-1.7-3.3v-6.3l-2.8-2.3h2.8v-14H24v14h17.5l-8.2,7.9V79.2z M50.9,56.9
	c1.8,0,3.3,1.5,3.3,3.3c0,1.8-1.5,3.3-3.3,3.3c-1.8,0-3.3-1.5-3.3-3.3C47.6,58.4,49.1,56.9,50.9,56.9z"/>
<path fill="#FFFFFF" d="M95.1,4.2v20.5h-6.4V8.2c0-0.4-0.3-0.7-0.7-0.7H13.7c-0.4,0-0.7,0.3-0.7,0.7v30H6.7v-34
	C6.7,1.9,8.6,0,10.9,0h79.9C93.2,0,95.1,1.9,95.1,4.2z"/>
<path fill="#FFFFFF" d="M99.4,24.7H67.2c-2.2,0-4,1.8-4,4v47.1c0,1.3,0.7,2.6,1.7,3.3c0.7,0.5,1.5,0.8,2.3,0.8h32.2c2.2,0,4-1.8,4-4
	V28.8C103.5,26.5,101.6,24.7,99.4,24.7z M83,78.4c-1.2,0-2.1-0.9-2.1-2.1c0-1.2,1-2.1,2.1-2.1c1.2,0,2.1,0.9,2.1,2.1
	C85.1,77.4,84.2,78.4,83,78.4z M99.4,71.8c0,0.2-0.2,0.4-0.4,0.4H67c-0.2,0-0.4-0.2-0.4-0.4V30c0-0.2,0.2-0.4,0.4-0.4H99
	c0.2,0,0.4,0.2,0.4,0.4V71.8z"/>
<path fill="#FFFFFF" d="M21.3,38.2H3.2c-1.5,0-2.7,1.2-2.7,2.7v36.3c0,1.5,1.2,2.7,2.7,2.7h18.1c1.5,0,2.7-1.2,2.7-2.7V40.9
	C24,39.5,22.8,38.2,21.3,38.2z M8.6,40.3C8.6,40.3,8.7,40.3,8.6,40.3l6.6,0c0,0,0,0,0,0v1.4c0,0,0,0,0,0H8.7c0,0,0,0,0,0V40.3z
	 M12.2,76.8c-1.1,0-1.9-0.9-1.9-1.9c0-1.1,0.9-1.9,1.9-1.9c1.1,0,1.9,0.9,1.9,1.9C14.2,75.9,13.3,76.8,12.2,76.8z M21.8,69.8
	c0,0.1-0.1,0.3-0.3,0.3H3.1c-0.2,0-0.3-0.1-0.3-0.3V43.4c0-0.1,0.1-0.3,0.3-0.3h18.5c0.1,0,0.3,0.1,0.3,0.3V69.8z"/>
</svg>
